<svg width="66" height="198" viewBox="0 0 66 198" fill="none" xmlns="http://www.w3.org/2000/svg">
<path d="M65 99C65 124.376 62.21 149.077 57.0176 167.418C54.4205 176.591 51.2312 184.142 47.5126 189.387C43.791 194.637 39.6 197.5 35 197.5C30.2751 197.5 25.7827 196.097 21.6884 192.828C17.5862 189.552 13.8585 184.382 10.713 176.808C4.41776 161.651 0.5 136.981 0.5 99C0.5 55.9962 3.29617 31.3301 8.46988 17.4244C11.0518 10.4847 14.2087 6.27376 17.8609 3.78836C21.5119 1.30372 25.7215 0.5 30.5 0.5C35.1102 0.5 39.5852 3.37426 43.7309 8.63311C47.8703 13.884 51.6188 21.4379 54.776 30.6089C61.0885 48.9461 65 73.6396 65 99Z" fill="#FEB237" stroke="black"/>
<path d="M34.9698 37.7766C43.836 33.9845 48.4411 34.5072 56.4698 36.7766C59.2277 44.5853 60.1806 49.3124 60.9698 58.2766C49.399 57.9986 43.3928 56.6556 33.4698 52.2766C27.2766 45.2599 27.2846 42.021 34.9698 37.7766Z" fill="#AA6A51"/>
<path d="M36.9697 85.2766C46.5033 81.9736 52.9174 81.0548 64.5 81.2766C65.7448 90.4966 65.7692 95.8581 64.5 105.777C53.3675 105.756 46.5032 104.265 34.9698 97.7766C29.3606 93.0642 27.997 90.375 36.9697 85.2766Z" fill="#AA6A51"/>
<path d="M31.5 129C45.0471 124.945 51.8953 125.277 63.5 128L61 149C50.5753 148.351 43.9292 146.862 30.5 142C25.9865 136.318 26.7822 133.543 31.5 129Z" fill="#AA6A51"/>
<path d="M34.9698 37.7766C43.836 33.9845 48.4411 34.5072 56.4698 36.7766C59.2277 44.5853 60.1806 49.3124 60.9698 58.2766C49.399 57.9986 43.3928 56.6556 33.4698 52.2766C27.2766 45.2599 27.2846 42.021 34.9698 37.7766Z" stroke="black"/>
<path d="M36.9697 85.2766C46.5033 81.9736 52.9174 81.0548 64.5 81.2766C65.7448 90.4966 65.7692 95.8581 64.5 105.777C53.3675 105.756 46.5032 104.265 34.9698 97.7766C29.3606 93.0642 27.997 90.375 36.9697 85.2766Z" stroke="black"/>
<path d="M31.5 129C45.0471 124.945 51.8953 125.277 63.5 128L61 149C50.5753 148.351 43.9292 146.862 30.5 142C25.9865 136.318 26.7822 133.543 31.5 129Z" stroke="black"/>
<circle cx="17" cy="18" r="1" fill="black"/>
<circle cx="19" cy="16" r="1" fill="black"/>
<circle cx="20" cy="19" r="1" fill="black"/>
</svg>
