<svg width="233" height="593" viewBox="0 0 233 593" fill="none" xmlns="http://www.w3.org/2000/svg">
<path d="M98 10.5C100.346 19.0334 99.8571 25.7189 98 37C110.167 29.4573 118.399 29.6038 140.5 37C138.327 27.6224 138.835 20.7215 140.5 5.5L139.5 1H88.5L83 3V6.5C96.9323 7.34729 99.2412 8.67628 98 10.5Z" fill="#FC8B49" stroke="black"/>
<path d="M1 169.5V149C11.4718 127.011 19.3392 117.633 36.5 105.5C52.7503 91.1532 61.7136 84.7605 77.5 75.5C93.2008 79.4568 102.054 80.5777 118 79H139L157 75.5L163 79C188.012 95.2967 196.878 104.025 211.5 119.5C222.123 129.646 227.121 135.878 232.5 149V165.5C230.262 177.537 228.504 183.543 223.5 191.5C215.123 212.6 212.379 221.747 211.5 232.5C209.314 250.545 209.098 259.359 211.5 271.5C214.348 304.186 216.931 321.043 223.5 348.5C229.169 397.643 230.436 420.399 232.5 460.5V518.5C231.193 533.121 230.42 539.057 229 546.5C225.647 560.189 223.618 567.384 219 577C214.44 584.818 210.768 587.515 204 592H31L20.5 588L3 542V505C0.861639 468.935 1.26241 454.076 3 431C5.43681 390.001 7.52804 369.346 13 338L22.5 275.5C25.3736 254.188 24.5193 243.939 22.5 226C19.14 215.65 16.269 208.578 10 194.5L1 169.5Z" fill="#FC8B49" stroke="black"/>
<rect x="50" y="303.5" width="134" height="178" rx="18" fill="#F9F3C1"/>
<path d="M96.5 39C83.6954 48.0407 80.1998 56.543 77.5 75C106.771 85.2196 124.231 85.5588 157.5 75C158.465 61.0703 156.034 53.207 141.5 39C136.384 35.0246 131.853 33.3311 118.5 32C110.198 32.0136 105.484 32.5912 96.5 39Z" fill="#D9D9D9" stroke="black"/>
</svg>
