<svg width="166" height="470" viewBox="0 0 166 470" fill="none" xmlns="http://www.w3.org/2000/svg">
<path d="M6.12308 447.479L3.80693 437.623L9.29168 421.672L12.2775 397.355L16.421 363.608L15.4279 334.772L9.69809 295.28L6.17141 270.667L5.62236 246.419L7.65016 209.39L11.0016 182.095L12.8296 167.207L18.7409 147.782L38.9304 106.435L47.8891 90.9107L52.2506 71.7998L53.2513 47.2387L52.4937 41.1006L45.5459 40.2475L45.2839 5.45628L119.829 5.5417L120.317 30.2856L120.344 42.379L112.717 42.9538L112.047 48.4128L115.774 79.5995L128.05 106.798L140.571 132.012L153.727 164.357L158.438 191.634L161.042 219.66L162.009 236.403L160.695 259.414L158.379 278.273L156.368 294.65L154.784 307.553L153.26 319.96L150.833 347L150.833 372.556L152.47 383.839L153.428 396.551L159.558 420.476L162.44 433.928L160.977 445.838L155.17 456.208L145.08 464.54L115.129 466.404L95.0345 465.952L80.3988 466.17L62.8465 465.526L50.7531 465.552L37.0491 466.388L26.1311 465.048L12.4094 457.822L6.12308 447.479Z" fill="#454447" stroke="black" stroke-width="6"/>
<path d="M108.5 46L57 47.5H55.5C55.7877 55.1334 55.8147 58.6756 55.5 63C55.3325 69.2936 54.667 72.9281 53 79.5H112.5C110.773 67.0957 109.842 59.9858 108.5 46Z" fill="white"/>
<path d="M118.826 43.1953L44.8204 43.481C42.5959 43.4896 40.7917 41.6816 40.8051 39.4571L40.9881 8.97587C41.0011 6.80349 42.7457 5.03865 44.9178 5.00051L119.482 3.69107C121.755 3.65115 123.604 5.51159 123.551 7.78456L122.809 39.2894C122.758 41.4553 120.992 43.1869 118.826 43.1953Z" fill="#F76162" stroke="black" stroke-width="7"/>
<path d="M155 167.5L148.5 153.5L83.25 147L20 153.5H16.5C16.5 153.5 11.1575 178.71 8.5 195C7.45068 201.432 6 211.5 6 211.5V234C6 234 45 242 83.25 243C121.5 244 160.5 234 160.5 234V211.5L158 189L155 167.5Z" fill="#F96263" stroke="black" stroke-width="6"/>
<path d="M25.497 205.51C24.171 205.51 23.083 205.136 22.233 204.388C21.383 203.64 20.958 202.467 20.958 200.869C20.958 199.577 21.213 198.217 21.723 196.789C22.233 195.361 22.998 193.967 24.018 192.607C26.228 189.683 28.523 188.221 30.903 188.221C33.113 188.221 34.218 189.224 34.218 191.23C34.218 191.978 33.98 192.794 33.504 193.678C32.926 194.664 32.297 195.157 31.617 195.157C31.107 195.157 30.852 194.953 30.852 194.545C30.852 194.103 31.311 193.559 32.229 192.913C33.147 192.233 33.606 191.468 33.606 190.618C33.606 189.462 33.011 188.884 31.821 188.884C30.563 188.884 29.169 189.802 27.639 191.638C26.551 192.998 25.633 194.46 24.885 196.024C24.545 196.704 24.205 197.605 23.865 198.727C23.525 199.815 23.355 200.869 23.355 201.889C23.355 202.739 23.542 203.47 23.916 204.082C24.29 204.694 24.953 205 25.905 205C26.789 205 27.707 204.762 28.659 204.286C29.611 203.776 30.427 203.181 31.107 202.501C31.685 201.923 32.331 201.141 33.045 200.155C33.793 199.135 34.541 197.894 35.289 196.432C35.391 196.262 35.493 196.177 35.595 196.177C35.799 196.177 35.799 196.347 35.595 196.687C35.017 197.843 34.388 198.948 33.708 200.002C33.062 201.056 32.195 202.076 31.107 203.062C30.461 203.708 29.645 204.286 28.659 204.796C27.673 205.272 26.619 205.51 25.497 205.51ZM20.4396 218.158C19.6916 218.158 18.9606 217.886 18.2466 217.342C17.5666 216.798 17.1246 216.135 16.9206 215.353L16.9716 215.251L17.2266 215.149H17.3286C17.7366 216.713 18.5016 217.495 19.6236 217.495C20.9496 217.495 22.6156 216.39 24.6216 214.18C26.1176 212.582 27.4096 210.882 28.4976 209.08C29.1436 208.026 29.8746 206.717 30.6906 205.153C31.5066 203.589 32.4246 201.77 33.4446 199.696C34.4986 197.554 35.4336 195.701 36.2496 194.137C37.0656 192.539 37.7626 191.247 38.3406 190.261C38.7146 189.581 39.1566 188.918 39.6666 188.272C40.1766 187.626 40.7376 186.98 41.3496 186.334C42.9816 184.566 44.2906 183.682 45.2766 183.682C45.9566 183.682 46.2966 183.988 46.2966 184.6C46.2966 185.178 45.9736 185.552 45.3276 185.722L44.5116 185.824C43.4916 185.926 42.6076 186.3 41.8596 186.946C41.3836 187.354 40.8226 187.966 40.1766 188.782C39.5646 189.564 38.8676 190.567 38.0856 191.791C36.6916 193.967 35.6376 196.245 34.9236 198.625C38.3916 192.097 41.5366 188.833 44.3586 188.833C46.4326 188.833 47.4696 190.125 47.4696 192.709C47.4696 195.633 46.3476 198.37 44.1036 200.92C42.9476 202.212 41.7576 203.198 40.5336 203.878C39.3436 204.558 38.0176 204.949 36.5556 205.051C37.2356 205.153 37.8816 205.204 38.4936 205.204C39.7516 205.204 40.9416 205 42.0636 204.592C43.1856 204.15 44.2226 203.555 45.1746 202.807C46.1606 202.025 47.0616 201.09 47.8776 200.002C48.7276 198.88 49.4586 197.69 50.0706 196.432C50.1726 196.228 50.2746 196.126 50.3766 196.126C50.5806 196.126 50.5976 196.296 50.4276 196.636C49.8836 197.656 49.3056 198.625 48.6936 199.543C48.1156 200.427 47.4866 201.226 46.8066 201.94C45.9906 202.756 44.8686 203.589 43.4406 204.439C42.0466 205.289 40.3296 205.714 38.2896 205.714C37.7116 205.714 37.0826 205.646 36.4026 205.51C35.7226 205.374 35.1786 205.136 34.7706 204.796C34.4646 204.524 34.2776 204.184 34.2096 203.776C34.1416 203.368 34.0906 202.875 34.0566 202.297C33.8866 202.943 33.6486 203.691 33.3426 204.541C33.0366 205.357 32.6796 206.258 32.2716 207.244C31.8296 208.366 31.4216 209.301 31.0476 210.049C30.6736 210.831 30.3506 211.426 30.0786 211.834C27.0866 216.05 23.8736 218.158 20.4396 218.158ZM35.9436 204.847C37.0996 204.847 38.5106 203.861 40.1766 201.889C41.5026 200.393 42.5396 198.914 43.2876 197.452C44.6476 194.732 45.3276 192.454 45.3276 190.618C45.3276 189.632 44.9196 189.139 44.1036 189.139C42.1996 189.139 40.0746 190.941 37.7286 194.545C36.6406 196.211 35.8416 197.707 35.3316 199.033C34.8216 200.359 34.5666 201.549 34.5666 202.603C34.5666 204.099 35.0256 204.847 35.9436 204.847ZM53.3876 205.51C52.0616 205.51 50.9736 205.136 50.1236 204.388C49.2736 203.64 48.8486 202.467 48.8486 200.869C48.8486 199.577 49.1036 198.217 49.6136 196.789C50.1236 195.361 50.8886 193.967 51.9086 192.607C54.1186 189.683 56.4136 188.221 58.7936 188.221C61.0036 188.221 62.1086 189.224 62.1086 191.23C62.1086 191.978 61.8706 192.794 61.3946 193.678C60.8166 194.664 60.1876 195.157 59.5076 195.157C58.9976 195.157 58.7426 194.953 58.7426 194.545C58.7426 194.103 59.2016 193.559 60.1196 192.913C61.0376 192.233 61.4966 191.468 61.4966 190.618C61.4966 189.462 60.9016 188.884 59.7116 188.884C58.4536 188.884 57.0596 189.802 55.5296 191.638C54.4416 192.998 53.5236 194.46 52.7756 196.024C52.4356 196.704 52.0956 197.605 51.7556 198.727C51.4156 199.815 51.2456 200.869 51.2456 201.889C51.2456 202.739 51.4326 203.47 51.8066 204.082C52.1806 204.694 52.8436 205 53.7956 205C54.6796 205 55.5976 204.762 56.5496 204.286C57.5016 203.776 58.3176 203.181 58.9976 202.501C59.5756 201.923 60.2216 201.141 60.9356 200.155C61.6836 199.135 62.4316 197.894 63.1796 196.432C63.2816 196.262 63.3836 196.177 63.4856 196.177C63.6896 196.177 63.6896 196.347 63.4856 196.687C62.9076 197.843 62.2786 198.948 61.5986 200.002C60.9526 201.056 60.0856 202.076 58.9976 203.062C58.3516 203.708 57.5356 204.286 56.5496 204.796C55.5636 205.272 54.5096 205.51 53.3876 205.51ZM74.8503 205.153C73.0823 205.153 72.1983 203.929 72.1983 201.481C72.1983 200.529 72.3513 199.441 72.6573 198.217C70.2773 202.807 67.9143 205.102 65.5683 205.102C64.4463 205.102 63.5963 204.541 63.0183 203.419C62.5423 202.569 62.3043 201.498 62.3043 200.206C62.3043 199.152 62.4573 198.047 62.7633 196.891C63.3413 194.885 64.5653 192.998 66.4353 191.23C68.5093 189.326 70.4813 188.374 72.3513 188.374C74.0513 188.374 74.9013 189.394 74.9013 191.434C74.9013 192.318 74.7143 193.355 74.3403 194.545L77.4513 188.425H77.6043C77.7063 188.595 77.9273 188.68 78.2673 188.68C78.9473 188.68 79.8143 188.272 80.8683 187.456L80.9703 187.558L76.6353 196.024C74.9013 199.39 74.0343 201.94 74.0343 203.674C74.0343 204.354 74.3403 204.694 74.9523 204.694C75.3603 204.694 75.8533 204.541 76.4313 204.235C77.0093 203.929 77.6213 203.419 78.2673 202.705C79.0833 201.753 79.7803 200.852 80.3583 200.002C80.9703 199.118 81.6673 197.928 82.4493 196.432C82.5513 196.262 82.6533 196.177 82.7553 196.177C82.9593 196.177 82.9593 196.347 82.7553 196.687C82.1433 197.843 81.4803 198.999 80.7663 200.155C80.0863 201.277 79.2533 202.331 78.2673 203.317C77.0433 204.541 75.9043 205.153 74.8503 205.153ZM65.7723 204.745C67.6763 204.745 70.1243 202.059 73.1163 196.687C74.0683 194.987 74.5443 193.27 74.5443 191.536C74.5443 189.7 73.9493 188.782 72.7593 188.782C71.4673 188.782 70.0053 189.853 68.3733 191.995C67.7273 192.879 67.1663 193.746 66.6903 194.596C66.2483 195.446 65.8913 196.262 65.6193 197.044C64.9053 199.084 64.5483 200.92 64.5483 202.552C64.5483 204.014 64.9563 204.745 65.7723 204.745ZM93.829 205.51C92.503 205.51 91.415 205.136 90.565 204.388C89.715 203.64 89.29 202.467 89.29 200.869C89.29 199.577 89.545 198.217 90.055 196.789C90.565 195.361 91.33 193.967 92.35 192.607C94.56 189.683 96.855 188.221 99.235 188.221C101.445 188.221 102.55 189.224 102.55 191.23C102.55 191.978 102.312 192.794 101.836 193.678C101.258 194.664 100.629 195.157 99.949 195.157C99.439 195.157 99.184 194.953 99.184 194.545C99.184 194.103 99.643 193.559 100.561 192.913C101.479 192.233 101.938 191.468 101.938 190.618C101.938 189.462 101.343 188.884 100.153 188.884C98.895 188.884 97.501 189.802 95.971 191.638C94.883 192.998 93.965 194.46 93.217 196.024C92.877 196.704 92.537 197.605 92.197 198.727C91.857 199.815 91.687 200.869 91.687 201.889C91.687 202.739 91.874 203.47 92.248 204.082C92.622 204.694 93.285 205 94.237 205C95.121 205 96.039 204.762 96.991 204.286C97.943 203.776 98.759 203.181 99.439 202.501C100.017 201.923 100.663 201.141 101.377 200.155C102.125 199.135 102.873 197.894 103.621 196.432C103.723 196.262 103.825 196.177 103.927 196.177C104.131 196.177 104.131 196.347 103.927 196.687C103.349 197.843 102.72 198.948 102.04 200.002C101.394 201.056 100.527 202.076 99.439 203.062C98.793 203.708 97.977 204.286 96.991 204.796C96.005 205.272 94.951 205.51 93.829 205.51ZM107.642 205.459C106.146 205.459 105.007 204.813 104.225 203.521C103.511 202.433 103.154 201.107 103.154 199.543C103.154 196.857 104.004 194.358 105.704 192.046C107.574 189.53 109.818 188.272 112.436 188.272C113.762 188.272 114.782 188.731 115.496 189.649C116.176 190.533 116.516 191.655 116.516 193.015C116.516 193.627 116.448 194.256 116.312 194.902C116.21 195.548 116.04 196.228 115.802 196.942C115.292 198.438 114.663 199.611 113.915 200.461L114.017 200.614C114.357 200.852 114.765 200.971 115.241 200.971C116.227 200.971 117.06 200.648 117.74 200.002C118.42 199.356 119.185 198.2 120.035 196.534C120.069 196.398 120.137 196.33 120.239 196.33C120.307 196.33 120.358 196.381 120.392 196.483C120.426 196.551 120.409 196.653 120.341 196.789C119.627 198.285 118.862 199.424 118.046 200.206C117.264 200.988 116.346 201.379 115.292 201.379C114.612 201.379 114.085 201.192 113.711 200.818C113.371 201.43 112.997 202.008 112.589 202.552C112.181 203.062 111.722 203.521 111.212 203.929C110.056 204.949 108.866 205.459 107.642 205.459ZM107.999 205.051C109.801 205.051 111.569 203.674 113.303 200.92C113.303 200.818 113.354 200.716 113.456 200.614C112.844 199.594 112.538 198.625 112.538 197.707C112.538 197.673 112.538 197.605 112.538 197.503C112.538 197.367 112.555 197.197 112.589 196.993C112.623 196.619 112.691 196.245 112.793 195.871C112.895 195.463 113.065 195.089 113.303 194.749C113.813 193.933 114.425 193.525 115.139 193.525H115.598C115.734 193.559 115.836 193.576 115.904 193.576C115.972 193.576 116.023 193.576 116.057 193.576C116.057 190.516 115.088 188.986 113.15 188.986C111.518 188.986 109.971 189.972 108.509 191.944C107.319 193.508 106.469 195.259 105.959 197.197C105.653 198.251 105.5 199.356 105.5 200.512C105.5 203.538 106.333 205.051 107.999 205.051ZM123.464 205.408C120.71 205.408 119.333 203.589 119.333 199.951C119.333 197.775 119.809 195.242 120.761 192.352C121.203 191.026 121.679 189.751 122.189 188.527C122.699 187.303 123.243 186.164 123.821 185.11C124.535 183.818 125.283 182.594 126.065 181.438C126.847 180.248 127.68 179.126 128.564 178.072C131.114 174.91 133.29 173.329 135.092 173.329C135.84 173.329 136.214 173.686 136.214 174.4C136.214 175.352 135.823 176.814 135.041 178.786C132.423 185.28 128.173 191.196 122.291 196.534C121.713 198.676 121.424 200.393 121.424 201.685C121.424 203.895 122.121 205 123.515 205C123.991 205 124.45 204.915 124.892 204.745C125.334 204.541 125.725 204.32 126.065 204.082C126.983 203.368 127.765 202.535 128.411 201.583C129.057 200.631 129.618 199.679 130.094 198.727C130.57 197.775 130.995 196.976 131.369 196.33C131.471 196.16 131.573 196.109 131.675 196.177C131.777 196.211 131.794 196.313 131.726 196.483C131.046 197.911 130.298 199.373 129.482 200.869C128.666 202.365 127.629 203.555 126.371 204.439C125.453 205.085 124.484 205.408 123.464 205.408ZM122.444 196.024C123.124 195.446 123.838 194.732 124.586 193.882C125.334 193.032 126.133 192.063 126.983 190.975C127.833 189.887 128.7 188.68 129.584 187.354C130.468 186.028 131.352 184.6 132.236 183.07C134.616 179.024 135.806 176.202 135.806 174.604C135.806 174.026 135.619 173.737 135.245 173.737C133.987 173.737 131.743 176.44 128.513 181.846C127.663 183.376 126.898 184.855 126.218 186.283C125.402 188.085 124.671 189.802 124.025 191.434C123.413 193.032 122.886 194.562 122.444 196.024ZM142.983 205.153C141.215 205.153 140.331 203.929 140.331 201.481C140.331 200.529 140.484 199.441 140.79 198.217C138.41 202.807 136.047 205.102 133.701 205.102C132.579 205.102 131.729 204.541 131.151 203.419C130.675 202.569 130.437 201.498 130.437 200.206C130.437 199.152 130.59 198.047 130.896 196.891C131.474 194.885 132.698 192.998 134.568 191.23C136.642 189.326 138.614 188.374 140.484 188.374C142.184 188.374 143.034 189.394 143.034 191.434C143.034 192.318 142.847 193.355 142.473 194.545L145.584 188.425H145.737C145.839 188.595 146.06 188.68 146.4 188.68C147.08 188.68 147.947 188.272 149.001 187.456L149.103 187.558L144.768 196.024C143.034 199.39 142.167 201.94 142.167 203.674C142.167 204.354 142.473 204.694 143.085 204.694C143.493 204.694 143.986 204.541 144.564 204.235C145.142 203.929 145.754 203.419 146.4 202.705C147.216 201.753 147.913 200.852 148.491 200.002C149.103 199.118 149.8 197.928 150.582 196.432C150.684 196.262 150.786 196.177 150.888 196.177C151.092 196.177 151.092 196.347 150.888 196.687C150.276 197.843 149.613 198.999 148.899 200.155C148.219 201.277 147.386 202.331 146.4 203.317C145.176 204.541 144.037 205.153 142.983 205.153ZM133.905 204.745C135.809 204.745 138.257 202.059 141.249 196.687C142.201 194.987 142.677 193.27 142.677 191.536C142.677 189.7 142.082 188.782 140.892 188.782C139.6 188.782 138.138 189.853 136.506 191.995C135.86 192.879 135.299 193.746 134.823 194.596C134.381 195.446 134.024 196.262 133.752 197.044C133.038 199.084 132.681 200.92 132.681 202.552C132.681 204.014 133.089 204.745 133.905 204.745Z" fill="white"/>
</svg>
