<svg width="123" height="169" viewBox="0 0 123 169" fill="none" xmlns="http://www.w3.org/2000/svg">
<path d="M1 102.692C3.35373 81.4186 23.056 29.3773 33.7854 18.3026C40.2855 10.4661 40.3977 6.70634 52.256 2C55.8627 3.13669 58.8083 2.86083 62.4149 2C70.3731 5.27743 77.8688 8.40082 83.6562 15.9051C98.2728 31.6803 120.956 87.0826 121.983 102.692C122.304 118.268 118.105 124.929 112.286 136.257C104.333 149.7 97.8279 155.363 83.6562 163.108C64.1804 169.928 53.2612 169.326 33.7854 163.108L33.4955 162.93C21.3096 155.446 14.3882 151.195 9.31179 136.257C3.57115 119.366 1.57595 111.751 1 102.692Z" fill="#EFF082" stroke="#016B39" stroke-width="2"/>
<ellipse cx="59.5" cy="97.5" rx="29.5" ry="39.5" fill="#613813"/>
</svg>
