<svg width="103" height="138" viewBox="0 0 103 138" fill="none" xmlns="http://www.w3.org/2000/svg">
<mask id="path-1-inside-1_9_120" fill="white">
<path d="M1 31H73V138H1V31Z"/>
</mask>
<path d="M1 31H73V138H1V31Z" fill="white"/>
<path d="M73 138V139H74V138H73ZM1 138H0V139H1V138ZM72 31V138H74V31H72ZM73 137H1V139H73V137ZM2 138V31H0V138H2Z" fill="black" mask="url(#path-1-inside-1_9_120)"/>
<mask id="path-3-inside-2_9_120" fill="white">
<path d="M69 31H100V138H69V31Z"/>
</mask>
<path d="M69 31H100V138H69V31Z" fill="white"/>
<path d="M69 31V30H68V31H69ZM100 31H101V30H100V31ZM100 138V139H101V138H100ZM69 138H68V139H69V138ZM69 32H100V30H69V32ZM99 31V138H101V31H99ZM100 137H69V139H100V137ZM70 138V31H68V138H70Z" fill="black" mask="url(#path-3-inside-2_9_120)"/>
<path d="M69.4678 31.25L84.5 10.8431L99.5322 31.25H69.4678Z" fill="white" stroke="black"/>
<path d="M13.069 11L1 31H70.5172L85 11H13.069Z" fill="white" stroke="black"/>
<mask id="path-7-inside-3_9_120" fill="white">
<path d="M13 0H85V11H13V0Z"/>
</mask>
<path d="M13 0H85V11H13V0Z" fill="white"/>
<path d="M13 0V-1H12V0H13ZM85 0H86V-1H85V0ZM13 1H85V-1H13V1ZM84 0V11H86V0H84ZM14 11V0H12V11H14Z" fill="black" mask="url(#path-7-inside-3_9_120)"/>
<rect x="80" y="63" width="10" height="62" fill="white"/>
<path d="M13.0732 75.2989C14.4665 75.1951 12.9506 67.2884 15.0049 62.136C18.6087 59.2601 25.3457 57.6409 28.5268 60.4906C33.0035 64.4482 32.5346 68.2304 33.3561 72.8308C37.2639 77.0544 40.4019 77.6567 47.8439 75.2989C51.4583 73.4706 53.0545 72.171 54.1219 68.7174C57.7442 68.7089 59.5564 68.7082 62.3317 68.7174H70.0585H100V137H70.0585H1V70.3628L5.34634 75.2989C8.3639 77.7329 11.6799 75.4026 13.0732 75.2989Z" fill="#3397E8"/>
<path d="M70.0585 68.7174H62.3317C59.5564 68.7082 57.7442 68.7089 54.1219 68.7174C53.0545 72.171 51.4583 73.4706 47.8439 75.2989C40.4019 77.6567 37.2639 77.0544 33.3561 72.8308C32.5346 68.2304 33.0035 64.4482 28.5268 60.4906C25.3457 57.6409 18.6087 59.2601 15.0049 62.136C12.9506 67.2884 14.4665 75.1951 13.0732 75.2989C11.6799 75.4026 8.3639 77.7329 5.34634 75.2989L1 70.3628V137H70.0585M70.0585 68.7174H100V137H70.0585M70.0585 68.7174V137" stroke="black"/>
<path d="M20.321 41.0909H21.8977L25.6051 50.1463H25.733L29.4403 41.0909H31.017V52H29.7812V43.7116H29.6747L26.2656 52H25.0724L21.6634 43.7116H21.5568V52H20.321V41.0909ZM34.9868 41.0909V52H33.6657V41.0909H34.9868ZM37.6355 52V41.0909H38.9565V50.8281H44.0275V52H37.6355ZM46.073 52V41.0909H47.394V46.5028H47.5218L52.4224 41.0909H54.1483L49.5673 46.0128L54.1483 52H52.5502L48.7576 46.929L47.394 48.4631V52H46.073Z" fill="black"/>
<rect x="32.5" y="90.5" width="19" height="11" fill="#D9D9D9" stroke="black"/>
<path d="M28.503 104.403L29.3546 101.5H55.2244L56.5053 104.434L57.4813 107.999L56.5053 111.503L55.2218 114.5H29.3159L28.1014 111.531L27.5114 108.026L28.503 104.403Z" fill="#787878" stroke="black" stroke-linecap="round" stroke-linejoin="round"/>
<circle cx="36.5" cy="110.5" r="1.5" fill="black"/>
<circle cx="47.5" cy="110.5" r="1.5" fill="black"/>
<path d="M53.5155 94.4226H53.4786L53.442 94.4281C52.726 94.5345 52.2785 94.511 52.0037 94.4344C51.7547 94.3651 51.6586 94.2573 51.6032 94.1457C51.5324 94.0031 51.5 93.7935 51.5 93.4817C51.5 93.3305 51.5071 93.172 51.515 92.9981L51.5151 92.9967C51.5227 92.8275 51.5311 92.6439 51.5311 92.4613C51.5311 92.2777 51.5227 92.1004 51.5149 91.9411L51.5144 91.9298C51.5067 91.7708 51.5 91.6329 51.5 91.5033C51.5 91.232 51.5316 91.0727 51.5919 90.9645C51.6414 90.8758 51.7431 90.7629 52.0281 90.6676C52.3266 90.5679 52.7927 90.5 53.5155 90.5C54.6159 90.5 55.5 91.3825 55.5 92.4613C55.5 93.5401 54.6159 94.4226 53.5155 94.4226Z" fill="#D9D9D9" stroke="black"/>
<path d="M30.4845 90.5774H30.5214L30.558 90.5719C31.274 90.4655 31.7215 90.489 31.9963 90.5656C32.2453 90.6349 32.3414 90.7427 32.3968 90.8543C32.4676 90.9969 32.5 91.2065 32.5 91.5183C32.5 91.6695 32.4929 91.828 32.485 92.0019L32.4849 92.0033C32.4773 92.1725 32.4689 92.3561 32.4689 92.5387C32.4689 92.7223 32.4773 92.8996 32.4851 93.0589L32.4856 93.0702C32.4933 93.2292 32.5 93.3671 32.5 93.4967C32.5 93.768 32.4684 93.9273 32.4081 94.0355C32.3586 94.1242 32.2569 94.2371 31.9719 94.3324C31.6734 94.4321 31.2073 94.5 30.4845 94.5C29.3841 94.5 28.5 93.6175 28.5 92.5387C28.5 91.4599 29.3841 90.5774 30.4845 90.5774Z" fill="#D9D9D9" stroke="black"/>
<path d="M37.5 85.9923C37.5 88.7133 36.8408 89.7019 36.0166 90.1234C35.5684 90.3525 35.0069 90.4517 34.3145 90.4852C33.8563 90.5073 33.3796 90.5003 32.8648 90.4928C32.5901 90.4888 32.3046 90.4846 32.0053 90.4846C31.2278 90.4846 30.7237 90.3524 30.3908 90.1596C30.071 89.9744 29.8679 89.7096 29.7338 89.3483C29.5941 88.9721 29.5321 88.4979 29.5104 87.9168C29.4957 87.5251 29.4996 87.1145 29.5038 86.6726C29.5058 86.454 29.508 86.2277 29.508 85.9923C29.508 85.7569 29.5058 85.5306 29.5038 85.312C29.4996 84.8701 29.4957 84.4595 29.5104 84.0678C29.5321 83.4867 29.5941 83.0125 29.7338 82.6363C29.8679 82.275 30.071 82.0102 30.3908 81.825C30.7237 81.6322 31.2278 81.5 32.0053 81.5C35.1295 81.5 37.5 83.593 37.5 85.9923Z" fill="#D9D9D9" stroke="black"/>
<path d="M54.5 85.9923C54.5 88.7133 53.8408 89.7019 53.0166 90.1234C52.5684 90.3525 52.0069 90.4517 51.3145 90.4852C50.8563 90.5073 50.3796 90.5003 49.8648 90.4928C49.5901 90.4888 49.3046 90.4846 49.0053 90.4846C48.2278 90.4846 47.7237 90.3524 47.3908 90.1596C47.071 89.9744 46.8679 89.7096 46.7338 89.3483C46.5941 88.9721 46.5321 88.4979 46.5104 87.9168C46.4957 87.5251 46.4996 87.1145 46.5038 86.6726C46.5058 86.454 46.508 86.2277 46.508 85.9923C46.508 85.7569 46.5058 85.5306 46.5038 85.312C46.4996 84.8701 46.4957 84.4595 46.5104 84.0678C46.5321 83.4867 46.5941 83.0125 46.7338 82.6363C46.8679 82.275 47.071 82.0102 47.3908 81.825C47.7237 81.6322 48.2278 81.5 49.0053 81.5C52.1295 81.5 54.5 83.593 54.5 85.9923Z" fill="#D9D9D9" stroke="black"/>
</svg>
